<svg viewBox="0 0 49.261 56.3811" x="0" y="0" fill="none" xmlns="http://www.w3.org/2000/svg"><path id="Vector" d="M49.0266,22.9154c-0.133,-0.284 -0.31,-0.467 -0.501,-0.665c-2.327,-2.408 -4.971,-1.102 -4.971,-1.102l-17.301,6.723c-0.232,0.094 -0.584,-0.156 -0.789,-0.259l-10.32,-7.245c-0.205,-0.103 -0.529,-0.032 -0.718,0.159l-1.264,1.267c-0.19,0.19 -0.242,0.516 -0.116,0.725l4.732,8.06c0.126,0.209 0.245,0.456 0.014,0.549l-8.739,3.436c-0.232,0.093 -0.582,0.072 -0.779,-0.048c0,0 -4.53,-2.75 -5.586,-3.413c-0.199,-0.148 -0.41,-0.092 -0.593,0.044c-0.412,0.307 -1.001,0.873 -1.001,0.873c-0.193,0.186 -0.24,0.501 -0.105,0.701l2.861,4.559c0.135,0.201 0.441,0.392 0.672,0.417l8.998,0.082c0.231,0.025 0.61,-0.025 0.843,-0.112c0,0 29.248,-11.274 29.446,-11.452c0,0 3.83,-1.422 4.968,-2.639c0.217,-0.231 0.382,-0.376 0.249,-0.66z" fill="currentColor" xmlns="http://www.w3.org/2000/svg"/></svg>